<svg xmlns="http://www.w3.org/2000/svg" viewBox="0 0 32 32">
  <defs>
    <linearGradient id="brandGrad" x1="0%" y1="0%" x2="100%" y2="100%">
      <stop offset="0%" stop-color="#9b97d0"/>
      <stop offset="100%" stop-color="#78aaff"/>
    </linearGradient>
  </defs>
  <rect width="32" height="32" rx="6" fill="#0b0f12"/>
  <g transform="translate(3.2,9.25) scale(0.088)">
    <path fill="url(#brandGrad)" d="M290.83,126.75c.03-.13.05-.26.05-.39,0-.05,0-.1,0-.15,0-.17-.02-.34-.07-.51,0,0,0,0,0,0-.05-.17-.12-.34-.2-.49,0-.02-.01-.04-.02-.05L218.99,1.12c-.4-.7-1.14-1.12-1.95-1.12h-28.64s-.04,0-.06,0c-.18,0-.35.02-.53.07,0,0,0,0-.02,0-.16.05-.32.11-.47.19-.04.02-.09.05-.13.08-.11.07-.21.15-.31.24-.04.03-.07.07-.11.1-.12.13-.24.27-.33.43l-41.01,71.04L104.43,1.12c-.09-.16-.21-.3-.33-.43-.04-.04-.07-.07-.11-.1-.1-.09-.2-.17-.31-.24-.04-.03-.09-.06-.13-.08-.15-.08-.3-.15-.46-.19,0,0-.01,0-.02,0-.17-.05-.35-.06-.53-.07-.02,0-.04,0-.06,0h-28.64c-.8,0-1.55.43-1.95,1.12L.29,125.14s-.01.04-.02.05c-.09.16-.16.32-.2.49,0,0,0,0,0,0-.04.17-.06.34-.07.51,0,.05,0,.1,0,.15,0,.13.02.26.05.39.01.05.02.1.03.14.05.17.11.34.21.5l14.32,24.8c.4.7,1.14,1.12,1.95,1.12h257.76c.8,0,1.55-.43,1.95-1.12l14.32-24.8c.09-.16.16-.33.21-.5.01-.05.02-.09.03-.14ZM215.75,4.5l69,119.52h-106.77l11.72-20.3h55.98c.8,0,1.55-.43,1.95-1.12.4-.7.4-1.55,0-2.25L192.3,4.5h23.44ZM159.77,136.42c-4.65,0-6.12-.45-12.37-11.28l-42.96-74.41c-.4-.7-1.14-1.12-1.95-1.12s-1.55.43-1.95,1.12l-27.99,48.48h-23.44L102.48,6.75l55.33,95.84s.04.04.05.07c.08.12.16.23.26.34.03.03.06.07.09.1.12.12.26.23.42.32,0,0,0,0,0,0,.02.01.04.02.06.03.14.07.28.13.43.18.05.01.1.02.15.03.13.03.25.04.38.05.03,0,.06.01.1.01.02,0,.04,0,.06,0,.16,0,.31-.02.46-.06.02,0,.03,0,.05,0,.17-.05.33-.12.49-.2.02,0,.04-.01.06-.02.04-.02.07-.05.1-.07.07-.04.13-.09.2-.14.06-.05.11-.1.16-.15s.1-.1.15-.16c.05-.06.1-.13.15-.2.02-.03.05-.06.07-.1l26.69-46.23,11.72,20.3-13.67,23.68-14.32,24.8c-6.25,10.83-7.73,11.28-12.37,11.28ZM88.16,81.16l10.42,18.05h-20.85l10.42-18.05ZM118.75,125.14l-14.32-24.8-13.67-23.68,11.72-20.3,41.01,71.03c2.33,4.04,4.17,6.96,5.96,9.03h-18.33c-4.65,0-6.12-.45-12.37-11.28ZM202.72,81.16l10.42,18.05h-20.85l10.42-18.05ZM188.4,6.75l53.38,92.46h-23.44l-27.99-48.48c-.4-.7-1.14-1.12-1.95-1.12s-1.55.43-1.95,1.12l-26.69,46.23-11.72-20.3L188.4,6.75ZM75.14,4.5h23.44l-55.33,95.84c-.4.7-.4,1.55,0,2.25.4.7,1.14,1.12,1.95,1.12h55.98l11.72,20.3H6.14L75.14,4.5ZM273.03,148.82H17.86l-11.72-20.3h109.37c5.69,9.71,8.48,12.4,15.61,12.4h28.64c7.13,0,9.93-2.7,15.61-12.4h109.37l-11.72,20.3Z"/>
  </g>
</svg>
